
#
# '/mnt/sdcard/Download/cds-data/video/video_02_mkv (3min).mkv'
#
General
Count                                    : 285
Count of stream of this kind             : 1
Kind of stream                           : General
Kind of stream                           : General
Stream identifier                        : 0
Unique ID                                : 28982147807512208680838631579637610297
Unique ID                                : 28982147807512208680838631579637610297 (0x15CDC235ACC85637CB613FD415597739)
Count of video streams                   : 1
Count of audio streams                   : 1
Video_Format_List                        : MPEG-4 Visual
Video_Format_WithHint_List               : MPEG-4 Visual
Codecs Video                             : MPEG-4 Visual ASP
Audio_Format_List                        : AC-3
Audio_Format_WithHint_List               : AC-3
Audio codecs                             : AC3
Complete name                            : /mnt/sdcard/Download/cds-data/video/video_02_mkv (3min).mkv
Folder name                              : /mnt/sdcard/Download/cds-data/video
File name                                : video_02_mkv (3min)
File extension                           : mkv
Format                                   : Matroska
Format                                   : Matroska
Format/Url                               : http://packs.matroska.org/
Format/Extensions usually used           : mkv mk3d mka mks
Commercial name                          : Matroska
Format version                           : Version 2
Codec                                    : Matroska
Codec                                    : Matroska
Codec/Url                                : http://packs.matroska.org/
Codec/Extensions usually used            : mkv mk3d mka mks
File size                                : 38548856
File size                                : 36.8 MiB
File size                                : 37 MiB
File size                                : 37 MiB
File size                                : 36.8 MiB
File size                                : 36.76 MiB
Duration                                 : 180013
Duration                                 : 3mn 0s
Duration                                 : 3mn 0s 13ms
Duration                                 : 3mn 0s
Duration                                 : 00:03:00.013
Overall bit rate                         : 1713159
Overall bit rate                         : 1 713 Kbps
Stream size                              : 767066
Stream size                              : 749 KiB (2%)
Stream size                              : 749 KiB
Stream size                              : 749 KiB
Stream size                              : 749 KiB
Stream size                              : 749.1 KiB
Stream size                              : 749 KiB (2%)
Proportion of this stream                : 0.01990
Title                                    : Avidemux
Movie name                               : Avidemux
File last modification date              : UTC 2014-11-26 06:30:13
File last modification date (local)      : 2014-11-26 15:30:13
Writing application                      : Lavf53.24.0
Writing library                          : Lavf53.24.0
Writing library                          : Lavf53.24.0
AUTHOR                                   : Avidemux

Video
Count                                    : 274
Count of stream of this kind             : 1
Kind of stream                           : Video
Kind of stream                           : Video
Stream identifier                        : 0
StreamOrder                              : 0
ID                                       : 1
ID                                       : 1
Unique ID                                : 1
Format                                   : MPEG-4 Visual
Commercial name                          : MPEG-4 Visual
Format profile                           : Advanced Simple@L5
Format settings                          : BVOP
Format settings, BVOP                    : Yes
Format settings, BVOP                    : Yes
Format settings, QPel                    : No
Format settings, QPel                    : No
Format settings, GMC                     : 0
Format settings, GMC                     : No warppoints
Format settings, Matrix                  : Default (H.263)
Format settings, Matrix                  : Default (H.263)
Internet media type                      : video/MP4V-ES
Codec ID                                 : V_MPEG4/ISO/ASP
Codec ID/Info                            : Advanced Simple Profile
Codec ID/Url                             : http://www.xvid.org/Downloads.15.0.html
Codec                                    : V_MPEG4/ISO/ASP
Codec                                    : MPEG-4 Visual ASP
Codec/Family                             : MPEG-4V
Codec/Info                               : Advanced Simple Profile
Codec/Url                                : http://www.xvid.org/Downloads.15.0.html
Codec profile                            : Advanced Simple@L5
Codec settings                           : BVOP
Codec settings, Packet bitstream         : No
Codec settings, BVOP                     : Yes
Codec settings, QPel                     : No
Codec settings, GMC                      : 0
Codec settings, GMC                      : No warppoints
Codec settings, Matrix                   : Default (H.263)
Duration                                 : 180013
Duration                                 : 3mn 0s
Duration                                 : 3mn 0s 13ms
Duration                                 : 3mn 0s
Duration                                 : 00:03:00.013
Bit rate                                 : 1551067
Bit rate                                 : 1 551 Kbps
Width                                    : 1920
Width                                    : 1 920 pixels
Height                                   : 1080
Height                                   : 1 080 pixels
Pixel aspect ratio                       : 1.000
Display aspect ratio                     : 1.778
Display aspect ratio                     : 16:9
Frame rate mode                          : CFR
Frame rate mode                          : Constant
Frame rate                               : 29.970
Frame rate                               : 29.970 fps
Frame count                              : 5395
Resolution                               : 8
Resolution                               : 8 bits
Colorimetry                              : 4:2:0
Color space                              : YUV
Chroma subsampling                       : 4:2:0
Bit depth                                : 8
Bit depth                                : 8 bits
Scan type                                : Progressive
Scan type                                : Progressive
Interlacement                            : PPF
Interlacement                            : Progressive
Compression mode                         : Lossy
Compression mode                         : Lossy
Bits/(Pixel*Frame)                       : 0.025
Delay                                    : 33
Delay                                    : 33ms
Delay                                    : 33ms
Delay                                    : 33ms
Delay                                    : 00:00:00.033
Delay, origin                            : Container
Delay, origin                            : Container
Stream size                              : 34901598
Stream size                              : 33.3 MiB (91%)
Stream size                              : 33 MiB
Stream size                              : 33 MiB
Stream size                              : 33.3 MiB
Stream size                              : 33.28 MiB
Stream size                              : 33.3 MiB (91%)
Proportion of this stream                : 0.90539
Writing library                          : XviD0064
Writing library                          : XviD 64
Writing library/Name                     : XviD
Writing library/Version                  : 64
Default                                  : Yes
Default                                  : Yes
Forced                                   : No
Forced                                   : No

Audio
Count                                    : 235
Count of stream of this kind             : 1
Kind of stream                           : Audio
Kind of stream                           : Audio
Stream identifier                        : 0
StreamOrder                              : 1
ID                                       : 2
ID                                       : 2
Unique ID                                : 2
Format                                   : AC-3
Format/Info                              : Audio Coding 3
Commercial name                          : AC-3
Mode extension                           : CM (complete main)
Format settings, Endianness              : Big
Codec ID                                 : A_AC3
Codec                                    : AC3
Codec                                    : AC3
Codec/Family                             : AC3
Codec/Info                               : Dolby AC3
Duration                                 : 180012
Duration                                 : 3mn 0s
Duration                                 : 3mn 0s 12ms
Duration                                 : 3mn 0s
Duration                                 : 00:03:00.012
Bit rate mode                            : CBR
Bit rate mode                            : Constant
Bit rate                                 : 128000
Bit rate                                 : 128 Kbps
Channel(s)                               : 2
Channel(s)                               : 2 channels
Channel positions                        : Front: L R
Channel positions                        : 2/0/0
ChannelLayout                            : L R
Sampling rate                            : 44100
Sampling rate                            : 44.1 KHz
Samples count                            : 7938573
Resolution                               : 16
Resolution                               : 16 bits
Bit depth                                : 16
Bit depth                                : 16 bits
Compression mode                         : Lossy
Compression mode                         : Lossy
Delay                                    : 0
Delay                                    : 00:00:00.000
Delay, origin                            : Container
Delay, origin                            : Container
Delay relative to video                  : -33
Delay relative to video                  : -33ms
Delay relative to video                  : -33ms
Delay relative to video                  : -33ms
Delay relative to video                  : -00:00:00.033
Video0 delay                             : -33
Video0 delay                             : -33ms
Video0 delay                             : -33ms
Video0 delay                             : -33ms
Video0 delay                             : -00:00:00.033
Stream size                              : 2880192
Stream size                              : 2.75 MiB (7%)
Stream size                              : 3 MiB
Stream size                              : 2.7 MiB
Stream size                              : 2.75 MiB
Stream size                              : 2.747 MiB
Stream size                              : 2.75 MiB (7%)
Proportion of this stream                : 0.07472
Default                                  : Yes
Default                                  : Yes
Forced                                   : No
Forced                                   : No
bsid                                     : 8
dialnorm                                 : -31
dialnorm/String                          : -31 dB
dsurmod                                  : 0
acmod                                    : 2
lfeon                                    : 0
dialnorm_Average                         : -31
dialnorm_Average/String                  : -31 dB
dialnorm_Minimum                         : -31
dialnorm_Minimum/String                  : -31 dB
dialnorm_Maximum                         : -31
dialnorm_Maximum/String                  : -31 dB
dialnorm_Count                           : 2

